<svg width="20" height="20" viewBox="0 0 20 20" fill="none" xmlns="http://www.w3.org/2000/svg">
<path d="M14.6876 5.62793C14.5345 7.69316 12.9689 9.37793 11.2501 9.37793C9.53137 9.37793 7.96301 7.69355 7.81262 5.62793C7.65637 3.47949 9.17981 1.87793 11.2501 1.87793C13.3204 1.87793 14.8439 3.51855 14.6876 5.62793Z" stroke="#37424D" stroke-width="1.5" stroke-linecap="round" stroke-linejoin="round"/>
<path d="M11.25 11.8765C7.85156 11.8765 4.40235 13.7515 3.76406 17.2905C3.68594 17.7171 3.92852 18.1265 4.37539 18.1265H18.125C18.5719 18.1265 18.8133 17.7171 18.7363 17.2905C18.0977 13.7515 14.6484 11.8765 11.25 11.8765Z" stroke="#37424D" stroke-width="1.5" stroke-miterlimit="10"/>
<path d="M5.62494 9.0647H1.24994M3.43744 6.8772V11.2522V6.8772Z" stroke="#37424D" stroke-width="1.5" stroke-linecap="round" stroke-linejoin="round"/>
</svg>
