<svg width="24" height="25" viewBox="0 0 24 25" fill="none" xmlns="http://www.w3.org/2000/svg">
<g clip-path="url(#clip0_101_2102)">
<path d="M4.87506 15.9054H3.37506C3.16795 15.9054 3.00006 16.0733 3.00006 16.2804V23.0304C3.00006 23.2375 3.16795 23.4054 3.37506 23.4054H4.87506C5.08217 23.4054 5.25006 23.2375 5.25006 23.0304V16.2804C5.25006 16.0733 5.08217 15.9054 4.87506 15.9054Z" stroke="#37424D" stroke-width="1.5" stroke-linecap="round" stroke-linejoin="round"/>
<path d="M15.375 11.4027H13.875C13.6679 11.4027 13.5 11.5706 13.5 11.7777V23.0277C13.5 23.2348 13.6679 23.4027 13.875 23.4027H15.375C15.5821 23.4027 15.75 23.2348 15.75 23.0277V11.7777C15.75 11.5706 15.5821 11.4027 15.375 11.4027Z" stroke="#37424D" stroke-width="1.5" stroke-linecap="round" stroke-linejoin="round"/>
<path d="M20.6249 6.15183H19.1249C18.9178 6.15183 18.7499 6.31972 18.7499 6.52683V23.0268C18.7499 23.2339 18.9178 23.4018 19.1249 23.4018H20.6249C20.832 23.4018 20.9999 23.2339 20.9999 23.0268V6.52683C20.9999 6.31972 20.832 6.15183 20.6249 6.15183Z" stroke="#37424D" stroke-width="1.5" stroke-linecap="round" stroke-linejoin="round"/>
<path d="M10.1251 2.40182H8.62509C8.41798 2.40182 8.25009 2.56972 8.25009 2.77682V23.0268C8.25009 23.2339 8.41798 23.4018 8.62509 23.4018H10.1251C10.3322 23.4018 10.5001 23.2339 10.5001 23.0268V2.77682C10.5001 2.56972 10.3322 2.40182 10.1251 2.40182Z" stroke="#37424D" stroke-width="1.5" stroke-linecap="round" stroke-linejoin="round"/>
</g>
<defs>
<clipPath id="clip0_101_2102">
<rect width="24" height="24" fill="white" transform="translate(3.05176e-05 0.904785)"/>
</clipPath>
</defs>
</svg>
