<svg width="24" height="25" viewBox="0 0 24 25" fill="none" xmlns="http://www.w3.org/2000/svg">
<path d="M19.5 11.2791V20.408C19.5 21.0048 19.263 21.5771 18.841 21.999C18.4191 22.421 17.8468 22.658 17.25 22.658H6.75003C6.15329 22.658 5.581 22.421 5.15904 21.999C4.73708 21.5771 4.50003 21.0048 4.50003 20.408V5.40802C4.50003 4.81128 4.73708 4.23899 5.15904 3.81703C5.581 3.39507 6.15329 3.15802 6.75003 3.15802H11.3789C11.7766 3.15808 12.158 3.31606 12.4393 3.59724L19.0608 10.2188C19.342 10.5 19.5 10.8814 19.5 11.2791Z" stroke="#37424D" stroke-width="1.5" stroke-linejoin="round"/>
<path d="M8.24991 18.1571H15.7499M11.9999 3.5321V9.15711C11.9999 9.55493 12.1579 9.93646 12.4392 10.2178C12.7206 10.4991 13.1021 10.6571 13.4999 10.6571H19.1249L11.9999 3.5321ZM8.24991 14.4071H15.7499H8.24991Z" stroke="#37424D" stroke-width="1.5" stroke-linecap="round" stroke-linejoin="round"/>
</svg>
