<svg width="24" height="24" viewBox="0 0 24 24" fill="none" xmlns="http://www.w3.org/2000/svg">
<path d="M15.7499 8.24927H17.6249C18.1222 8.24927 18.5991 8.44681 18.9507 8.79844C19.3023 9.15007 19.4999 9.62699 19.4999 10.1243V19.8743C19.4999 20.3716 19.3023 20.8485 18.9507 21.2001C18.5991 21.5517 18.1222 21.7493 17.6249 21.7493H6.37488C5.8776 21.7493 5.40068 21.5517 5.04905 21.2001C4.69742 20.8485 4.49988 20.3716 4.49988 19.8743V10.1243C4.49988 9.62699 4.69742 9.15007 5.04905 8.79844C5.40068 8.44681 5.8776 8.24927 6.37488 8.24927H8.24988" stroke="#0A0A0A" stroke-width="1.5" stroke-linecap="round" stroke-linejoin="round"/>
<path d="M8.25 12.7456L12 16.4956L15.75 12.7456M12 2.24561V15.7456" stroke="#0A0A0A" stroke-width="1.5" stroke-linecap="round" stroke-linejoin="round"/>
</svg>
