<svg width="24" height="25" viewBox="0 0 24 25" fill="none" xmlns="http://www.w3.org/2000/svg">
<path d="M8.25014 12.9019H20.2501M14.2501 16.6519V18.5269C14.2501 19.0241 14.0526 19.5011 13.701 19.8527C13.3493 20.2043 12.8724 20.4019 12.3751 20.4019H4.87514C4.37786 20.4019 3.90094 20.2043 3.54931 19.8527C3.19768 19.5011 3.00014 19.0241 3.00014 18.5269V7.27686C3.00014 6.77957 3.19768 6.30266 3.54931 5.95103C3.90094 5.5994 4.37786 5.40186 4.87514 5.40186H12.0001C13.0356 5.40186 14.2501 6.24139 14.2501 7.27686V9.15186V16.6519ZM17.2501 16.6519L21.0001 12.9019L17.2501 9.15186V16.6519Z" stroke="#37424D" stroke-width="1.5" stroke-linecap="round" stroke-linejoin="round"/>
</svg>
