<svg width="24" height="25" viewBox="0 0 24 25" fill="none" xmlns="http://www.w3.org/2000/svg">
<g clip-path="url(#clip0_101_1577)">
<path d="M18.8439 8.78235C18.7065 10.6888 17.2923 12.1573 15.7501 12.1573C14.2079 12.1573 12.7914 10.6892 12.6564 8.78235C12.5157 6.79907 13.8925 5.40735 15.7501 5.40735C17.6078 5.40735 18.9845 6.83516 18.8439 8.78235Z" stroke="#37424D" stroke-width="1.5" stroke-linecap="round" stroke-linejoin="round"/>
<path d="M15.7501 15.1565C12.6953 15.1565 9.7576 16.6738 9.02167 19.6288C8.92417 20.0198 9.16932 20.4065 9.57104 20.4065H21.9296C22.3314 20.4065 22.5751 20.0198 22.479 19.6288C21.7431 16.6265 18.8054 15.1565 15.7501 15.1565Z" stroke="#37424D" stroke-width="1.5" stroke-miterlimit="10"/>
<path d="M9.37523 9.62426C9.26554 11.1468 8.12273 12.3458 6.89085 12.3458C5.65898 12.3458 4.51429 11.1472 4.40648 9.62426C4.29445 8.04036 5.40679 6.90833 6.89085 6.90833C8.37491 6.90833 9.48726 8.06942 9.37523 9.62426Z" stroke="#37424D" stroke-width="1.5" stroke-linecap="round" stroke-linejoin="round"/>
<path d="M9.65643 15.2516C8.81034 14.8639 7.87846 14.7148 6.89081 14.7148C4.45331 14.7148 2.10487 15.9266 1.51659 18.2867C1.43924 18.5989 1.63518 18.9078 1.95581 18.9078H7.21893" stroke="#37424D" stroke-width="1.5" stroke-miterlimit="10" stroke-linecap="round"/>
</g>
<defs>
<clipPath id="clip0_101_1577">
<rect width="24" height="24" fill="white" transform="translate(0.00012207 0.904785)"/>
</clipPath>
</defs>
</svg>
