<svg width="24" height="24" viewBox="0 0 24 24" fill="none" xmlns="http://www.w3.org/2000/svg">
<path d="M21.5624 2.43402L10.6406 13.3559M2.48994 9.36871L21.2399 2.2723C21.3076 2.24643 21.3813 2.2407 21.4521 2.2558C21.5229 2.2709 21.5879 2.30619 21.6391 2.35739C21.6903 2.4086 21.7256 2.47354 21.7407 2.54437C21.7558 2.6152 21.75 2.68888 21.7242 2.75652L14.6278 21.5065C14.5995 21.5777 14.5502 21.6386 14.4863 21.6809C14.4225 21.7232 14.3472 21.745 14.2706 21.7432C14.1941 21.7415 14.1199 21.7164 14.058 21.6712C13.9961 21.626 13.9496 21.563 13.9246 21.4906L10.7653 13.7051C10.7284 13.5948 10.6664 13.4945 10.5842 13.4123C10.5019 13.33 10.4017 13.268 10.2913 13.2312L2.50588 10.0746C2.43254 10.0502 2.36852 10.0038 2.32261 9.9416C2.27669 9.87942 2.25111 9.80457 2.24936 9.72729C2.24762 9.65001 2.2698 9.57409 2.31286 9.5099C2.35593 9.44571 2.41777 9.3964 2.48994 9.36871V9.36871Z" stroke="#0A0A0A" stroke-width="1.5" stroke-linecap="round" stroke-linejoin="round"/>
</svg>
